<svg xmlns="http://www.w3.org/2000/svg" version="1.1" xmlns:xlink="http://www.w3.org/1999/xlink" xmlns:svgjs="http://svgjs.dev/svgjs" viewBox="0 0 1422 800"><defs><linearGradient x1="50%" y1="0%" x2="50%" y2="100%" id="ssscribble-grad"><stop stop-color="hsl(0, 85%, 29%)" stop-opacity="1" offset="0%" style="--darkreader-inline-stopcolor: var(--darkreader-background-890b0b, #740f0f);" data-darkreader-inline-stopcolor=""></stop><stop stop-color="hsl(228, 95%, 25%)" stop-opacity="1" offset="100%" style="--darkreader-inline-stopcolor: var(--darkreader-background-031b7c, #081c69);" data-darkreader-inline-stopcolor=""></stop></linearGradient></defs><g fill="none" stroke-width="1.75" stroke="url(#ssscribble-grad)" stroke-linecap="round"><path d="M1441.6 390.89C1438.8 413.67 1395.77 437.57 1337.55 462.47 1296.07 487.38 1291.79 513.3 1323.63 540.08 1373.26 566.84 1410.8 594.37 1415.58 622.45 1384.22 650.25 1328.99 678.26 1273.11 706.05 1237.75 732.95 1233.45 758.96 1255.93 783.44 1307.74 816.18 1294.46 863.19 1220.64 875.28 1125.4 876.04 1148.65 866.15 1151.15 873.02 1137.16 884.9 1111.23 902.17 1076.86 924.8 1036.25 952.44 993.79 983.29 952.58 1015.37 912.62 1046.72 876.84 1074.54 845.35 1096.28 816.89 1110.76 791.85 1116.01 769.06 1111.52 748 1099.31 727.61 1079.88 706.96 1055.82 686.74 1031.85 665.4 1009.91 642.62 993.2 619.84 985.41 596.15 986.33 572 995.38 548.27 1012.19 524.94 1032.86 503.04 1054.25 457.46 1088.23 442.49 1034.96 447.67 988.6 444.64 955.92 434.25 924.23 413.13 895.21 380.27 870.34 336.85 850.01 286.58 834.29 192.73 816.15 236.3 810.4 237.42 805.03 204.57 799.32 152.27 790.63 95.25 779.05 52.45 765.73 38.18 749.78 56.85 731.6 96.02 712.07 136.42 690.89 154.93 668.55 137.29 645.42 88.87 621.66 30.45 597.64 -10.17 573.3 -12.6 549.05 24.37 525.16 78.08 501.2 118.8 477.74 121.6 454.96 83.02 432.18 27.48 410.61 -12.44 390.2 -15.11 369.72 22.58 350.24 80.65 331.62 130.2 312.67 148.73 294.23 131.36 276.02 89.31 257.03 48.05 237.75 29.7 217.8 43.96 196.5 87.98 173.96 145.3 149.86 196.73 124.04 226.45 96.42 229.45 67.01 209.08 36.29 179.17 4.35 154.34 -28.18 144.09 -60.32 156.08 -91.46 188.35 -120.42 235.12 -146.28 287.04 -167.93 335.16 -184.27 398.59 -193.61 392.8 -155.32 395.63 -143.41 404.44 -143.15 419.72 -149.38 440.02 -162.72 463.96 -183.5 490.58 -209.63 518.23 -238.91 547.24 -269.09 575.66 -296.47 602.6 -317.78 629.79 -331.35 654.96 -334.58 677.74 -326.79 700.52 -310.09 720.38 -285.84 737.57 -257.37 755 -228.79 770.3 -202.66 784.25 -181.66 799.58 -168.37 815.16 -162.74 832.54 -164.36 853.58 -173.24 878.75 -186.23 909.43 -200.88 944.91 -216.27 985.73 -228.55 1030.42 -235.87 1074.52 -238.18 1116.01 -233.38 1150.02 -221.54 1172.49 -203.78 1181.04 -180.23 1174.82 -152.29 1159.3 -121.39 1138.66 -88.76 1121.74 -55.82 1119.32 -23.51 1135.76 7.18 1172.91 35.64 1224.63 61.5 1279.91 84.69 1324.01 105.39 1344.74 123.37 1337.11 139.47 1306 154.25 1268.99 167.18 1243.54 179.67 1245.97 192.25 1281.01 203.94 1337.1 216.39 1392 229.92 1422.24 243.18 1414.6 257.84 1373.85 274.05 1324.57 290.23 1293.57 308.04 1300.73 327.5 1345.15 346.97 1403 368.09 1441.59 390.88Q1441.6 390.89 1441.6 390.89" opacity="0.75"></path><path d="M1397.6 441.59C1396.39 462.86 1359.02 484.94 1304.76 507.72 1259.8 530.44 1243.99 553.75 1261.97 577.4 1304.06 600.83 1347.33 624.35 1370.71 647.65 1363.64 670.34 1326.56 692.35 1273.34 713.24 1205.78 741.99 1215.37 786.77 1260.13 801.09 1277.61 807.85 1273.66 811.73 1248.19 812.9 1206.08 813.21 1156.15 811.79 1108.1 809.4 1056.07 808.22 1038.53 820.1 1054.71 838.24 1066.31 856.79 1071.96 879.57 1069.85 905.98 1060.82 935.2 1043.74 965.47 1020.46 994.91 992.18 1021.96 960.91 1044.36 928.67 1060.27 894.97 1069.27 862.38 1069.99 831.73 1062.4 801.15 1048.7 772.89 1029.35 747.04 1006.61 721.34 984.55 697.83 964.56 676.56 949.2 655.3 941.62 636.79 941.56 621.08 948.63 605.51 962.79 592.96 980.88 583.44 1000.44 570.59 1028.49 552.72 1051.55 540.91 1040.19 527.34 1023.7 508.49 1001.16 482.61 974.18 449.81 944.64 410.27 913.91 365.89 883.63 321.62 855.25 280.62 829.6 248.42 807.33 248.1 767.36 288.02 742.3 238.53 737.85 186.99 734.84 135.68 730.15 99.04 723.52 87.12 716.2 102.58 706.67 138.16 695.04 175.79 682.53 199.03 668.1 194.1 652.01 158.72 635.28 105.3 617.22 55 598.14 28.81 578.73 38.37 558.6 79.12 537.97 129.18 517.25 164.39 496.2 165.6 474.94 130.52 453.68 78.9 432.7 37.38 412.01 25.57 391.22 50.72 370.55 100.96 349.85 154.2 328.83 188.6 307.5 192.41 285.66 166.49 263.17 126.41 239.84 91.83 215.5 77.37 190.28 92.07 163.87 131.64 136.29 184.46 108 235.09 78.8 270.75 49.04 284.47 19.49 277.23 -9.7 256.5 -37.77 230.17 -63.97 210.56 -87.64 204.81 -107.85 215.04 -124.43 241.79 -136.42 280.34 -143.33 326.06 -146.17 372.15 -144.2 413.67 -137.95 448.41 -129.81 474.01 -119.69 491.26 -109.11 502.92 -98.49 507.71 -106.12 512.17 -129.01 516.73 -151.91 524.94 -178.44 536.63 -206.51 549.33 -234.27 564.89 -258.62 582.75 -276.99 600.95 -288.27 620.81 -290.37 642.07 -282.79 663.34 -267.44 685.49 -245.29 708.71 -219.03 732.27 -192.08 757.51 -166.47 784.92 -144.56 813.33 -128.77 844.5 -119.33 878.52 -116.33 913.21 -120.24 949.83 -128.8 986.99 -140.26 1021.55 -154.11 1053 -167.06 1078.5 -177.31 1100.32 -185.85 1086.54 -167.51 1064.02 -140.83 1055.89 -117.44 1058.33 -90.68 1075.96 -61.74 1109.58 -31.49 1155.73 -0.87 1207.16 29.23 1253 58.49 1283.93 86.25 1292.35 112.26 1278.83 136.47 1248.82 158.86 1214.96 179.62 1194.35 198.67 1196.97 216.57 1227.01 233.69 1277.17 249.65 1331.09 265.4 1369.02 281.28 1377.22 296.57 1352.98 312.43 1307.95 329.11 1265.91 345.55 1247.01 363.05 1263.01 381.75 1308.72 400.39 1362.5 420.32 1397.59 441.58Q1397.6 441.59 1397.6 441.59" opacity="0.41"></path><path d="M1353.6 472.21C1353.78 491.96 1321.91 511.78 1272.42 531.58 1226.16 551.3 1201.06 570.84 1205.18 590 1235.66 608.87 1277.1 627.08 1311.54 644.34 1325.93 661 1312.48 676.36 1275.35 690.11 1225.61 702.95 1177.7 713.88 1143.96 722.68 1168.94 738.36 1202.93 745.72 1153.65 747.71 1109.12 751.72 1064.18 757.75 1024.33 766.5 992.54 779.12 971.12 795.16 959.23 814.73 956.24 837.86 958.56 863.65 962.96 891.21 969.26 919.56 973.04 947.15 972.92 972.38 966.69 1002.5 928.53 1023.57 900.64 1012.08 880.11 997.5 858.86 978.65 837.69 957.44 816.21 937.33 795.43 919.24 775.69 905.2 755.94 897.88 737.7 896.96 720.72 902.21 703.44 913.84 686.79 929.29 670.09 946.68 652.1 965.29 632.8 981.86 611.19 994.62 586.99 1003.39 559.3 1005.96 527.63 1002.02 493.53 992.41 456.38 976.76 417.67 956.07 380.85 931.78 347.05 904.71 319.61 876.28 301.07 847.72 293.1 820 296.64 793.99 308.24 770.43 326.06 749.55 344.72 731.46 355.89 716.54 355.7 704.12 339.69 693.74 307.38 685.84 262.81 679.08 213.68 672.88 163.52 656.46 244.2 621.97 218.97 605.05 173.39 592.95 122.52 579.32 84.42 564.28 72.68 549.06 91.97 532.57 134.33 514.92 179.92 497.22 209.78 478.47 209.6 458.73 177.93 438.98 130.5 418.71 88.67 397.96 69.42 377.15 82.31 355.74 121.88 333.73 172.89 311.54 216.91 288.59 239.5 264.86 234.46 240.86 207.45 216 171.43 190.38 139.64 164.59 126.34 138.18 136.86 111.44 169.04 85.01 215.32 58.78 264.25 33.27 305.76 9.04 331.95 -13.58 340.7 -33.93 298.54 -73.14 302.21 -83.2 350.12 -72.34 389.67 -64.46 430 -56.53 468.15 -49.84 503.57 -46.77 533.92 -47.2 559.26 -52.06 580.2 -62.59 597.25 -78.02 611.8 -97.92 623.74 -121.83 635.1 -147.82 646.99 -174.06 658 -199.07 670.63 -220.33 685.4 -235.86 700.02 -245.02 717.11 -246.11 736.85 -238.79 756.6 -224.76 778.52 -204.67 802.36 -180.66 826.05 -155.54 851.32 -130.87 877.54 -108.67 902.89 -91.11 928.11 -78.58 951.99 -71.48 1000.96 -106.66 986.97 -129.92 1000.61 -116.26 1024.85 -101.69 1060.16 -83.08 1103.95 -61.21 1149.99 -36.89 1192.36 -10.64 1223.47 16.66 1238.04 44.67 1233.83 72.64 1212.88 100.06 1184.52 126.94 1157.37 152.76 1142.79 177.38 1149.87 201 1179.26 223.43 1225.52 244.81 1276.01 265.28 1315.88 284.98 1332.08 304.14 1320.64 322.7 1286.05 341.07 1242.65 359.43 1210.7 377.52 1203.61 395.87 1226.75 414.6 1272.48 433.27 1321.91 452.46 1353.59 472.2Q1353.6 472.21 1353.6 472.21" opacity="0.59"></path><path d="M1309.6 467.96C1310.98 486.19 1284.37 503.72 1240.27 520.49 1178.84 545.12 1187.91 589.29 1241.51 608.21 1270.13 620.02 1278.91 630.37 1264.72 639.15 1231.08 647.54 1186.07 654.35 1140.61 659.64 1098.45 671.69 1159.68 689.43 1159.3 700 1142.17 710.3 1113.85 722.93 1078.25 738.17 1038.38 756.47 998.88 777.33 962.86 800.48 931.44 825.53 906.51 851.61 887.74 877.77 874.81 903.14 866.26 926.44 860.33 946.42 850.15 971.66 819.38 936.83 800.28 908.32 786.57 890.18 770.58 873.95 752.35 861.2 734.13 854.18 714.1 852.54 692.31 856.15 670.38 865.38 646.46 878.2 620.52 893.2 594.35 910.04 566.23 925.97 536.56 939.52 507.43 950.57 477.91 956.98 449.29 958.18 423.64 954.75 401.39 945.84 384.39 931.94 373.23 914.13 369.11 892.67 372.44 868.61 380.37 842.98 392.74 816.52 406.54 790.14 416.06 764.53 419.36 740.22 412.59 717.63 393.29 697.11 362.13 678.63 321.5 662.11 277.31 647.81 235.74 635.13 204.41 623.69 188.88 613.93 191.89 604.81 212.06 595.93 256.34 583.88 282.22 557.8 232.99 542.63 164.75 526.42 134.58 487.61 189.72 464.89 230.22 449.29 254.98 432.38 253.6 414.16 225.23 395.93 182.21 376.83 141.24 356.92 116.42 337.01 118.11 316.29 145.46 294.86 189.27 273.42 235.94 251.29 271.63 228.61 286.79 206.03 279.56 183.04 255.27 159.89 222.07 137.15 193.04 114.58 177.7 92.58 180.33 71.54 202.4 51.61 239.07 33.28 283.58 16.62 327.44 2.18 363.67 -9.59 363.83 -21.39 364.63 -0.05 399.4 3.4 429.18 1.04 461.23 -4.89 493.61 -14.82 526.63 -29.38 557.9 -47.65 586.84 -68.98 614.75 -92.81 640.19 -117.45 663.43 -141.32 685.81 -163.36 706.63 -181.55 726.29 -194.38 745.69 -201.6 764.44 -201.81 782.67 -194.79 800.89 -182.05 818.16 -163.97 834.26 -142.23 850.1 -119.1 864.26 -95.75 876.25 -73.84 900.89 -36.75 912.43 -64.88 933.85 -75.16 958.07 -79.33 989.78 -79.9 1027.84 -76.68 1068.47 -70.4 1108.81 -60.28 1143.96 -46.69 1169.14 -30.39 1181.29 -11.35 1178.54 9.79 1163.84 32.57 1140.27 56.56 1114.74 81.18 1097.04 106.35 1092.62 131.5 1106.25 156.28 1137.84 180.93 1181.71 204.91 1228.27 228.1 1265.93 250.91 1285.04 272.93 1280.17 294.18 1254.76 315.08 1216.81 335.35 1180.02 355.07 1159.69 374.59 1163.36 393.73 1191.77 412.51 1236.34 431.24 1281.22 449.73 1309.59 467.95Q1309.6 467.96 1309.6 467.96" opacity="0.61"></path><path d="M1265.6 430.89C1246.81 464.31 1165.04 493.15 1110.72 517.25 1135.96 541.14 1201.25 560.09 1231.32 574.31 1193.22 589.08 1111.52 600.79 1044.4 611.45 1027.41 626.75 1053.44 645.48 1086.64 670.39 1101.68 704.16 1078.33 745.4 1026.51 792.03 959.01 840.24 894.07 883.99 840.79 915.91 797.8 932.85 765.26 930.12 736.85 908.44 711.98 878.09 684.14 844.17 650.73 817.2 617.32 809.16 579.9 818.41 541.77 840.22 493.04 883.32 464.33 898.91 485.29 856.16 485.61 813.46 461 765.46 402.16 717.54 325.17 672.67 259.53 632.91 241.72 598.57 274.04 569.85 325.79 544.49 339.39 520.46 284.83 499.06 200.52 476.18 162.39 450.48 203.81 425.29 278.81 396.16 297.6 362.75 232.58 329.34 165.31 293.22 173.52 255.39 249.39 218.08 320.6 180.18 328.68 143.67 278.41 109.8 231.97 80.14 236.99 57.35 295.62 40.2 375.69 31.99 437.2 33.06 457.79 41.38 422.89 46.46 447.6 16.97 483.57 -20.36 527.79 -64.82 572.08 -108.1 618.4 -142.8 659.37 -158.83 692.79 -150.79 726.2 -123.82 750.48 -83.13 767.17 -39.89 785.9 -5.32 802.46 16.42 824.39 23.98 859.49 16.55 910.69 2.77 978.13 -10.64 1046.78 -22.48 1102.18 -24.1 1121.69 -14.08 1103.98 4.79 1063.53 34.03 1039.68 70.23 1069.44 111.06 1145.84 154.38 1220.6 197.51 1237.03 241.2 1184.85 283.04 1121.87 322.16 1126.53 361.07 1200.56 397.47 1265.59 430.88Q1265.6 430.89 1265.6 430.89" opacity="0.20"></path><path d="M1221.6 378.91C1208.2 409.28 1136.32 435.39 1073.82 457.46 1072.64 479.8 1123.18 498.77 1172.73 515.27 1178.99 533.58 1129.08 551.61 1054.77 571.2 993.46 595.64 969.81 624.41 979.08 658.48 1007.85 697.94 1028.51 741.16 1027.97 785.03 1006.85 826.05 966.63 859.47 918.29 880.09 864.72 887.46 814.82 878.66 771.65 855.47 729.61 827.17 693.56 797.11 663.19 773.2 632.81 765.01 609.54 770.96 594.3 787.92 577.5 826.14 566.55 859.1 535.96 835.19 489.67 804.84 425.41 766.15 356.83 723.54 307.74 679.66 295.38 637.11 325.06 597.67 367.74 561.36 390.41 528.38 361.88 498.01 290.07 469.99 222.24 442.71 211.7 415.12 262.48 388.2 328.2 359.7 341.6 329.32 284.37 298.95 218.05 268.13 207.46 237.77 262 208.07 338.61 180.1 380.53 155.47 341.37 124.68 312.81 97.75 405.63 101.28 471.62 104.08 515.27 106.76 535.2 105.49 534.77 94.31 528.08 73.98 525.79 44 525.52 5.25 536.4 -36.44 556.49 -74.18 579.25 -102.87 606.98 -114.98 637.36 -106.79 667.73 -82.89 699.32 -46.68 733.83 -6.65 771.03 28.25 815.41 54.35 868.31 69.25 923.25 70.89 979.96 64.71 1027.22 55.32 1054.09 39.48 992.89 49.38 1013.84 79.19 1079.26 106.41 1153.39 138.4 1191.38 172.74 1171.74 208.87 1112.42 245.16 1069.59 280.1 1091.89 315.32 1164.35 348.52 1221.59 378.9Q1221.6 378.91 1221.6 378.91" opacity="0.26"></path><path d="M1177.6 337.1C1168.95 364.44 1108.11 389.37 1043.25 412.15 1019.58 435.42 1046.17 457.52 1095.06 479.34 1131.84 503.11 1125.66 528.36 1079.42 556.12 1012.95 587.3 953.09 621.93 916.49 659.56 907.44 698.89 917.03 738.39 931.16 774.89 946.5 817.22 902.49 831.76 857.76 802.01 824.77 776.33 793.48 750.15 766.14 729.2 738.8 721.03 716.71 724.12 698.14 736.51 677.37 757.67 655.53 779.48 627.84 797.04 591.77 809.96 544.9 812.18 488.34 803.3 432.08 785.84 383.24 759.24 356.46 726.47 357.23 689.86 384.68 651.28 422.68 613.04 440.45 575.23 422.12 539.32 365.3 505.78 296.37 473.5 254.22 442.97 267.34 413.91 321.65 385.33 376.95 357.36 385.6 330.02 336.01 302.68 273.19 277.27 248.12 254.3 278.45 231.8 345.83 212.59 406.99 197.5 420.29 179.11 339.29 165.99 368.04 166.44 421.21 163.38 482.01 157.57 536.25 146.56 579.48 126.97 608.15 100.24 627.05 67.28 637.64 29.68 647.58 -7.67 661.44 -39.38 674.31 -62.32 693.96 -70.96 721.3 -62.79 748.63 -41.85 782.36 -10.13 821.05 26.09 858.74 59.92 898.54 88.42 935.32 108.85 964.09 113.16 951.35 100.04 1030.01 113.3 1096.03 127.68 1139.46 147.44 1136.76 171.05 1095.64 196.61 1043.82 224.24 1024.03 252.53 1059.64 281.3 1127.99 309.75 1177.59 337.09Q1177.6 337.1 1177.6 337.1" opacity="0.75"></path><path d="M1133.6 325.66C1129.03 349.96 1079.73 374.14 1017.84 398.25 978.47 422.76 978.89 447.97 1010.9 474.26 1055.23 501.85 1081.82 531.4 1076.93 563 1042.22 595.99 988.1 630.63 931.75 665.68 883.68 699.62 852.26 731.11 836.06 757.52 834.44 783.94 835.82 777.97 821.24 748.26 808.1 725.65 789.01 703.3 764.71 685.2 740.41 677.24 712.05 677.94 679.36 686.15 645.65 702.29 606.36 720.36 562.36 736.8 519.44 751.82 477.14 759.84 442.45 759.75 421.2 753.52 417.72 739.04 433.94 717.95 458.44 692.33 483.75 662.73 493.16 631.22 472.75 598.27 424.37 565.32 362.22 533.51 312.4 501.76 298.15 471.55 328.15 443.29 380.65 415.19 425.03 388.81 429.6 364.51 387.42 340.21 330.23 319.13 295.73 301.41 302.94 283.84 350.65 269.84 412.82 259.48 470.87 245.64 423.11 229.02 396.19 220.15 403.11 209.39 431.44 195.05 472.68 175.99 521.68 150.77 569.69 120.96 612.06 88.13 650.86 53.87 683.21 21.98 710.98 -3.53 736.89 -21.13 761.42 -26.75 785.72 -18.79 810.02 -0.7 832.94 26.57 852.86 58.55 870.93 90.07 882.79 119.04 886.1 142.87 881.85 163.97 865.79 171.3 893.99 167.87 938.29 164.68 996.03 164.92 1052.51 169.38 1089.01 175.24 1092.67 185.7 1061.51 200.23 1017.15 216.05 983.27 235.05 985.42 256.36 1029.29 278.08 1091.4 301.35 1133.59 325.65Q1133.6 325.66 1133.6 325.66" opacity="0.81"></path><path d="M1089.6 350.12C1088.39 371.38 1050.53 394.12 995.96 418.09 949.1 442.25 927.59 467.97 935.01 495.07 965.76 522.57 1000.81 551.49 1024.28 581.25 1029.75 610.71 1011.73 639.99 976.41 667.66 930.31 692.82 882.7 714.18 840.31 729.95 804.09 740.55 776.66 743.9 755.89 739.39 740.5 730.01 727.1 714.43 712.73 694.44 699.57 675.2 682.86 656.56 661.6 641.2 640.34 633.62 615.52 632.42 588.59 636.99 562.86 648.27 537.57 661.93 516.12 675.61 505.15 700.15 544.69 668.94 513.48 637.82 467.88 613.94 413.75 588.48 367.42 562.67 344.41 536.19 353.83 510.21 392.48 485.5 438.84 460.69 472.39 437.39 473.6 416.13 438.52 394.87 388.61 376.64 349.87 361.35 338.4 345.96 362.1 333.26 409.79 322.9 464.28 311.86 507.83 302.29 530.59 293.4 530.04 282.43 513.93 270.56 493.19 256.82 472.46 239.33 462.95 218.73 466.58 194.87 480.61 167.51 504.72 138 534 108.02 567.39 78.76 600.49 52.99 630.61 33.51 661.1 20.73 687.42 17.62 708.68 25.2 729.95 40.56 745.15 63.51 754.77 90.95 764.75 119.15 770.32 146.82 773.79 171.79 781.35 191.89 792.25 207.61 810.99 219.15 840.12 225.52 880.16 229.37 928.76 232.08 1013.28 237.89 939.49 271.52 953.34 293.93 1000.28 310.06 1054.5 328.85 1089.59 350.11Q1089.6 350.12 1089.6 350.12" opacity="0.71"></path><path d="M1045.6 398.66C1046.98 416.88 1019.89 436.91 975.64 458.35 929.35 479.76 894.64 502.53 879.37 526.12 885.77 549.44 906.71 573.16 932.41 596.45 964.48 628.94 946.84 678.53 903.95 690.8 868.3 693.66 832.57 691.07 799.59 683.01 767.36 672.38 739.09 657.87 714.72 640.77 691.08 625.03 670.22 609.95 651.99 597.2 604.73 613.24 610.45 650.32 597.96 648.45 574.19 643.51 538.68 634.57 494.58 622.34 449.9 608.37 412.62 592.02 392.87 574.19 394.77 555.52 419.11 536.16 458.37 516.83 495.58 497.29 518.98 478.18 517.6 459.96 489.23 441.73 447.69 425.25 409.52 410.42 385.95 395.38 387.58 381.58 412.66 368.66 453.68 354.91 500.22 341.25 541.62 327.13 571.63 311.26 587.09 294.04 590.2 275.1 582.3 253.87 570.67 230.68 560.47 205.94 550.59 179.92 547.18 153.64 550.51 128.54 556.9 105.26 568.59 85.77 583.77 71.88 600.04 63.29 617.79 62.18 636.01 69.2 654.24 81.95 672.08 100.72 690.18 123.49 709.38 147.62 730.83 172.51 756.03 196.5 784.28 217.92 817.7 236.85 855.67 252.97 893.96 265.42 931.75 275.54 963.55 283.98 964.68 300.87 891.82 333.78 926.77 351.93 971.98 364.86 1017.22 380.42 1045.59 398.65Q1045.6 398.66 1045.6 398.66" opacity="0.44"></path><path d="M1001.6 447.84C988.2 478.22 915.09 512.64 849.1 547.52 874.74 618.08 804.9 590.17 754.07 553.2 723.7 545.01 706.73 547.47 695.48 556.62 674.02 573.95 638.21 586.31 578.15 589.27 507.8 588.78 449.62 576.89 443.68 556.23 487.4 533.29 548.2 505.21 561.6 474.83 504.37 444.46 442.38 414.66 434.19 384.96 482.95 352.98 558.38 317.46 618.38 278.14 649.87 235.37 657.96 190.79 662.61 151.2 661.85 119.78 674.9 105.01 705.28 113.2 735.65 137.11 780.46 175.53 833.87 218.19 881.86 257.13 921.18 290.99 929.51 318.46 909.33 338.36 866.12 356.5 839.61 376.25 870.06 394.01 944.35 417.46 1001.59 447.83Q1001.6 447.84 1001.6 447.84" opacity="0.77"></path><path d="M957.6 473.92C953.03 498.22 902.7 522.14 840.72 543.39 798.73 576.27 806.67 536.91 774.61 509.2 750.3 501.24 719.52 499.27 680.76 501.69 638.41 511.01 586.4 518.74 534.6 521.77 493.32 522.87 580.79 487.28 605.6 453.57 563.42 429.27 510.05 401.79 480.81 372.13 485.88 341.63 526.68 307.92 580.79 272.87 636.59 237.99 680.95 204.49 713.01 177.35 738.48 157.12 761.06 149.24 785.36 157.2 809.66 175.29 833.39 204.38 850.03 238.29 860.08 272.16 853.65 305.11 829.7 334.69 807.44 360.38 792.41 383.97 805.15 406.37 852.19 427.23 915.4 449.61 957.59 473.91Q957.6 473.92 957.6 473.92" opacity="0.17"></path><path d="M913.6 464.31C914.98 482.53 886.91 497.48 843.32 508.36 796.64 518.58 757.91 523.7 731.99 523.01 714.87 517.51 697.61 484.34 674.73 465.2 656.5 458.18 631.09 453.69 602.65 451.34 561.67 454.47 640.64 431.12 649.6 406.44 621.23 388.21 582.65 366.39 550.48 342.53 529.56 318.73 530.71 293.24 549.21 268.26 579.15 244.69 614.3 223.63 646.61 208.09 679.61 197.08 706.45 194.18 724.67 201.2 742.9 213.95 750.78 234.12 749.37 258.37 748.65 283.9 741.94 310.65 735.89 336.33 741.28 360.91 759.45 384.23 793.72 405.6 839.25 426.3 885.22 446.07 913.59 464.3Q913.6 464.31 913.6 464.31" opacity="0.76"></path><path d="M869.6 423.64C865.03 447.94 812.62 458.38 756.06 455.11 704.55 452.3 667.8 439.3 643.5 421.2 615.57 409.6 672.67 386.96 693.6 356.2 651.41 331.89 605.72 300.81 589.14 273.11 590.08 249.65 613.79 237.24 638.09 245.2 662.39 263.3 682.69 295.99 713.59 330.65 762.02 365.78 827.41 399.33 869.6 423.64Q869.6 423.64 869.6 423.64" opacity="0.25"></path></g></svg>