<svg xmlns="http://www.w3.org/2000/svg" version="1.1" xmlns:xlink="http://www.w3.org/1999/xlink" xmlns:svgjs="http://svgjs.dev/svgjs" viewBox="0 0 1422 800"><defs><linearGradient x1="50%" y1="0%" x2="50%" y2="100%" id="ssscribble-grad"><stop stop-color="hsl(184, 45%, 70%)" stop-opacity="1" offset="0%" style="--darkreader-inline-stopcolor: var(--darkreader-background-90d0d5, #2d696e);" data-darkreader-inline-stopcolor=""></stop><stop stop-color="hsl(332, 27%, 85%)" stop-opacity="1" offset="100%" style="--darkreader-inline-stopcolor: var(--darkreader-background-e3ced8, #442936);" data-darkreader-inline-stopcolor=""></stop></linearGradient></defs><g fill="none" stroke-width="1.5" stroke="url(#ssscribble-grad)" stroke-linecap="round"><path d="M1495.72 449.56C1520.33 475.41 1532.14 498.99 1529.26 520.16 1513.26 541.14 1485.71 559.37 1451.27 574.64 1415.73 589.5 1383.46 601.35 1358.49 610.46 1342.07 624.1 1365.99 655.24 1389.2 682.29 1401.9 708.86 1407.55 742.42 1404.56 782.99 1393.39 828 1373.18 875.45 1345.46 921.06 1312.23 959.57 1275.3 987.24 1236.99 1000.36 1198.98 999.63 1163.02 986.22 1130.21 965.44 1101.22 947.57 1076.19 938.83 1054.8 946.57 1037.29 974.32 1022.31 1018.55 1008.93 1071.18 992.31 1136.48 958.17 1128.93 937.79 1075.42 923.54 1053.32 907.23 1055.89 888.86 1085.94 870.3 1135.01 849.77 1185.09 827.38 1216.66 804.92 1217.95 780.73 1187.64 754.88 1138.6 729.02 1094.19 702.11 1072.92 674.22 1082.54 646.25 1118.65 617.16 1162.95 586.96 1195.64 556.57 1203.73 524.99 1181.36 492.33 1136.25 459.61 1083.41 426.07 1039.11 392.14 1015.2 358.92 1016.6 326.21 1037.57 294.89 1066.79 265.82 1093.52 239.59 1104.72 217.25 1095.07 198.8 1065.55 185.34 1020.79 177.35 969.7 173.16 920.53 173.62 880.98 177.75 854.76 184.5 843.18 182.44 865.23 162.4 871.26 138.47 866.66 107.76 852.77 72 830.64 33.73 801.78 -3.33 767.66 -35.24 730.68 -59.17 691.28 -71.95 652.04 -72.15 614.21 -61.76 576.7 -41.84 541.48 -16.28 508.63 8.17 476.51 28.11 446.36 39 417.91 36.76 389.72 22.33 362.74 -2.27 336.88 -33.63 311.03 -64.14 286.92 -88.01 264.75 -102.21 242.84 -102.54 223.36 -88.91 206.73 -64.15 190.82 -30.94 178.14 5.91 168.74 41.17 159.66 71.21 152.99 93.19 147.58 104.86 139.76 107.3 130.19 102.33 116.6 90.96 96.29 77.92 68.97 66.45 33.73 57.63 -8.02 55.39 -54.75 60.85 -102.79 73.34 -146.64 93.69 -182.17 120.59 -204.48 152.47 -212.14 187.96 -204.87 225.18 -186.23 263.03 -165.67 299.93 -149.69 334.9 -147.08 367.67 -164.35 397.65 -200.59 424.94 -250.38 449.52 -302.67 471.97 -344.71 492.87 -365.06 511.88 -360.12 530.32 -332.65 548.77 -294.4 566.29 -263.87 584.57 -253.85 603.97 -271.91 623.06 -314.57 643.65 -366.48 665.91 -407.71 688.11 -422.45 712.11 -403.81 737.96 -359.41 763.82 -310.36 790.91 -277.42 819.07 -273.59 847.17 -300.04 876.2 -342.51 905.87 -381.61 935.23 -401.68 964.85 -391.91 994.23 -355.23 1022.68 -303.82 1050.17 -253.61 1075.96 -218.96 1099.86 -208.35 1121.11 -220.26 1138.98 -246 1159.76 -285.16 1178.12 -257.64 1178.06 -190.48 1177.83 -139.17 1177.84 -93.49 1179.85 -58.88 1186.83 -38.11 1198.75 -30.28 1216.78 -31.8 1241.85 -40.42 1272.88 -49.39 1308.61 -54.55 1347 -55.27 1385.09 -47.62 1419.52 -31.74 1447.56 -9.03 1466.19 20.03 1473.47 53.25 1470.45 89.89 1457.24 127.66 1436.57 165 1414.31 202.8 1393.43 238.84 1378.65 272.74 1375 306.23 1382.92 337.61 1402.24 366.99 1431.22 396.18 1464.35 423.7 1495.71 449.55Q1495.72 449.56 1495.72 449.56" opacity="0.73"></path><path d="M1442.22 352.49C1465.4 376.5 1477.65 398.39 1477.26 418.34 1465.35 438.49 1442.57 457.14 1412.33 474.82 1379.18 493.46 1346.63 512.19 1318.37 531.96 1297.78 554.1 1285.65 578.76 1281.98 606.91 1286.91 638.46 1297.18 673.99 1310.02 713.2 1324.26 753.86 1335.55 795.46 1341.73 835.44 1342.65 870.43 1336 898.41 1321.93 916.52 1301.61 924.43 1275.33 921.47 1244.69 909.36 1211.09 894.27 1175.99 879.46 1140.86 871.13 1106.45 875.96 1073.88 895.57 1043.68 930.18 1015.98 975.6 990.91 1024.51 968.18 1067.39 947.89 1095.57 929.22 1103.2 911.59 1089.27 895.52 1061.18 879.63 1027.8 863.4 1001.96 847.9 996.01 831.46 1013.47 813.81 1051.61 796.39 1100 777.47 1143.02 756.91 1165.93 736.39 1161.69 714.15 1130.97 690.14 1085.1 666.13 1043.24 640.93 1020.43 614.69 1024.03 588.48 1052.53 561.33 1092.77 533.48 1128.88 505.85 1148.62 477.81 1142.73 449.76 1112.63 422.43 1067.05 395.68 1018.19 370.15 978.55 346.17 957.11 324.27 956.1 305.15 971.61 281.86 1010.09 257.58 1030.11 256.05 989.69 256.83 947.03 258.97 899.99 261.1 854.87 260.28 815.99 256.6 786.86 248.57 767.98 234.29 759.33 214.2 757.85 188.29 760.2 157.11 765.62 122.55 769.26 86.91 769.08 52.65 765.94 22.82 757.08 0.29 742.89 -13.62 724.84 -17.13 702.61 -10.08 677.52 4.61 650.18 25.71 621.62 49.59 592.89 70.57 563.38 86.28 534.63 93.44 507.22 89.09 479.66 74.4 453.75 51.22 429.75 22.2 405.74 -6.34 384.2 -29.73 364.99 -45.54 345.65 -49.79 328.32 -41.83 312.55 -23.48 296.01 3.91 280.1 36.84 263.88 71.11 245.41 103.56 225 131.17 201.45 151.27 174.04 163.51 142.33 168.21 106.06 165.31 66.82 157.88 24.91 148.35 -17.5 137.43 -56.86 129.03 -91.1 124.93 -116.81 128.2 -134.2 174.04 -106.52 213.49 -83.66 244.36 -79.99 277.33 -89.91 311.19 -115.81 345.53 -155.86 379.23 -204.05 411.69 -251.48 443.09 -288.41 472.81 -306.97 500.85 -303.13 527.55 -281.09 552.87 -247.86 577.12 -215.83 600.41 -199.27 623.16 -204.84 645.7 -233.84 667.77 -279.21 690.07 -326.51 712.81 -359.76 735.43 -368.13 758.71 -347.76 782.72 -305.91 806.73 -260.03 830.89 -226.88 855.03 -217.88 879.06 -236.03 902.83 -271.98 926.03 -311.11 948.77 -339.99 970.5 -345.99 990.77 -326.5 1010.07 -287.12 1027.39 -238.1 1042.3 -192.42 1072.63 -172.46 1093.44 -229.3 1098.31 -202.23 1104.95 -165.55 1114.42 -120.77 1127.79 -74.22 1146.47 -30.64 1169.99 5.27 1198.29 31.71 1230.74 47.96 1265.88 55.7 1301.78 57.72 1336.32 54.73 1367.02 51.4 1391.33 50.17 1411.7 52.89 1394.45 87.91 1365.32 118.31 1345.94 142.1 1330 167.84 1320.91 194.47 1322.21 222.07 1333.51 249.5 1354.08 276.11 1382.21 302.92 1413.19 328.47 1442.21 352.48Q1442.22 352.49 1442.22 352.49" opacity="0.94"></path><path d="M1388.72 335.02C1410.42 357.18 1422.88 380.22 1424.63 404.17 1416.45 428.33 1398.36 453.8 1372.72 480.8 1343.01 508.42 1311.84 537.99 1282.37 569.59 1257.7 601.76 1239.15 635.65 1227.56 670.61 1223.84 704.63 1226.25 737.9 1233.16 768.77 1261.54 820.12 1199.79 803.82 1157.39 825.97 1126.39 856.51 1094.57 896.4 1062.85 941.17 1031.4 984.19 1001.09 1019 972.24 1039.37 944.64 1042.91 918.64 1029.36 894.12 1003.04 870.86 973.85 848.7 949.59 827.33 939.24 806.8 949.1 786.57 977.86 766.35 1019.66 746.52 1064.2 726.33 1099 705.59 1113.67 684.95 1104.8 663.57 1074.22 641.41 1031.6 619.25 992.42 596.83 968.64 574.31 966.93 551.88 987.76 529.54 1022.2 507.58 1058.32 486.01 1085.78 465.19 1094.15 445.51 1080.64 426.67 1048.68 409.47 1005.15 394.33 960.14 352.19 940.38 336.13 939.63 327.82 888.65 317.2 846.83 302.63 804.56 283.58 765.43 259.65 731.34 231.69 704.2 200.59 683.95 167.68 670.55 134.8 662.19 104.13 656.93 54.54 648.7 83.36 614.23 114.81 591.77 131.89 575.16 143.46 556.59 147.25 536.53 141.13 516.24 126.42 494.92 104.72 472.76 78.04 450.6 51.54 428.13 28.97 405.25 12.13 382.14 4.71 358.18 7.63 333.01 19.78 307.04 40.86 279.25 68.49 249.33 99.49 218.31 131.47 185.08 161.63 149.97 187.36 114.86 207.53 79.34 221.46 44.91 209.91 -31.6 207.84 -11.16 227.7 -20.84 246.14 -43.65 268.33 -77.86 293.37 -120.37 320.64 -165.26 349.46 -205.95 379.02 -235.26 409.31 -248.65 439.44 -243.88 468.95 -222.96 498.31 -194.18 526.74 -165.09 554.1 -145.62 581.08 -144.61 607.07 -163.56 632.12 -199.57 656.89 -244.24 680.93 -285.2 704.28 -310.42 727.54 -313.11 750.27 -291.59 772.43 -252.41 794.59 -209.79 815.66 -176.96 835.56 -163.69 855.38 -173.97 873.87 -202.24 890.89 -238.23 915.17 -280.57 954.23 -244.83 968.74 -180.06 991.22 -109.3 1025.79 -152.83 1044.44 -164.82 1061.37 -157.28 1081.65 -136.67 1105.53 -105.58 1132.99 -67.04 1163.37 -25.2 1195.78 16.02 1228.96 54.38 1261.45 87.09 1291.42 113.39 1341.38 152.19 1322.05 176.99 1294.77 187.76 1274.4 202.12 1278.15 245.35 1306.33 272.88 1333.29 292.09 1362.03 312.85 1388.71 335.01Q1388.72 335.02 1388.72 335.02" opacity="0.54"></path><path d="M1335.22 426.43C1355.38 446.74 1367.84 468.7 1371.35 492.12 1366.51 515.44 1352.88 540.02 1332.02 565.45 1306.52 590.39 1278.12 615.58 1249.38 640.29 1222.92 663.52 1200.17 685.12 1182.38 704.06 1183.09 732.99 1206.14 725.95 1198.67 742.39 1188.58 764.88 1174.17 795.56 1156.06 832.87 1135.03 873.24 1111.35 912.91 1085.85 946.97 1058.87 971.16 1031.15 982.29 1003.28 978.89 975.13 963.84 947.48 939.98 920.61 913.45 894.04 892.98 868.42 883.43 843.78 889.3 819.54 911.94 796.15 947.29 773.57 988.45 751.23 1026.66 729.48 1052.7 708.27 1059.86 687.13 1047.31 666.39 1017.39 646.08 978.1 625.76 941.71 606.36 917.51 587.93 911.32 569.57 924.77 552.33 952.26 536.36 985.41 513.52 1025.78 476.34 1006.12 462.47 950.92 454.14 909.28 447.46 872.78 442.25 846.58 426.57 852.23 389.69 902.51 366.41 890.79 346.26 870.52 322.9 842.28 296.59 808.76 267.88 771.85 237.73 734.49 207.37 698.82 178.11 665.46 151.48 636.09 129.14 610.87 106.57 580.73 105.54 538.92 125.29 522.34 142.57 512.53 161.27 501.8 178.94 489.62 195.78 470.84 185.64 423.18 158.22 393.85 133.86 373.53 109.5 351.44 88.05 327.73 70.77 304.05 60.93 278.85 59.57 252.42 66.04 226.29 80.75 199.39 102.26 172.34 128.29 146.49 157.26 121.58 186.89 98.68 214.92 78.54 239.99 61.91 260.91 49.84 283.93 54.57 272.64 30.95 277.11 -13.92 283.66 -52.45 293.8 -93.4 307.19 -131.97 322.98 -163.19 341.45 -182.98 362 -188.35 384.16 -180.27 407.64 -160.33 431.87 -133.58 456.9 -108.65 482.11 -91.11 507.11 -87.07 532.39 -100.32 557.17 -128.87 581.22 -167.65 605.33 -208.64 628.61 -242.12 650.95 -259.59 673.29 -257.42 694.67 -235.29 714.98 -198.91 735.3 -159.62 754.06 -127.64 771.29 -111.06 788.52 -114.19 804.22 -134.25 818.43 -164.61 839.11 -210.77 874.4 -217.79 890.01 -171.06 900.98 -129.64 911.84 -89.22 923.03 -56.05 935.83 -34.52 949.74 -25.97 965.26 -29 983.17 -41.91 1003.27 -58.97 1025.79 -75.35 1050.75 -88.67 1077.91 -93.99 1106.87 -89.86 1136.85 -76.78 1167.17 -54.69 1196.7 -25.74 1224.33 8.27 1248.86 44.7 1268.96 81.16 1284.17 116.83 1293.3 149.6 1295.86 178.79 1293.06 204.63 1284.55 226.79 1271.41 245.92 1256.66 262.18 1240.92 276.66 1226.35 290.28 1213.8 308.65 1229.76 348.32 1258.96 371.77 1284.43 387.92 1310.85 406.1 1335.21 426.42Q1335.22 426.43 1335.22 426.43" opacity="0.36"></path><path d="M1281.72 473.54C1300.29 492.01 1312.53 509.87 1317.42 526.98 1315.48 543.92 1305.96 559.78 1289.84 574.23 1268.99 588.08 1244.44 600.03 1218.09 609.69 1192.05 618.4 1167.56 624.54 1145.93 628.04 1112.51 631.58 1113.69 646.76 1122.42 668.03 1128.2 689.87 1131.98 717.31 1133.19 749.68 1132.55 784.93 1128.64 821.25 1121.49 855.69 1111.94 885 1099.35 906.62 1084.14 918.07 1066.97 919.21 1047.82 909.79 1027.23 891.77 1005.44 870.4 982.86 848.85 959.91 832.29 936.43 826.33 913.01 832.6 889.96 851.91 866.75 882.51 844.1 919.44 822.17 956.29 800.23 986.51 779.05 1003.87 758.75 1004.51 738.46 989.26 719.03 960.5 700.57 924.6 673.56 879.08 626.55 873.91 606.53 911.8 587.85 954.57 556.63 973.33 543.41 939.17 534.36 904.22 525.74 866.13 517.2 830.15 502.33 790.25 465.19 773.02 440.86 788.51 421.6 803.24 400.15 816.2 376.58 824.85 351.17 828.82 324.34 825.61 296.75 815.3 269.23 798.86 242.63 776.69 218.09 750.39 196.39 720.83 178.7 689.76 165.99 658.58 158.18 627.22 156.17 597.32 160.02 569.34 168.1 542.6 180.58 517.96 196.2 495.23 212.12 473.7 227.86 453.56 241.58 434.39 250.57 415.87 254.65 397.74 252.95 379.7 244.4 361.83 230.29 343.71 211.72 325.24 189.68 306.77 167.52 288.4 147.44 270.3 124.52 243.71 119.9 196.05 139.41 177.04 159.41 166.26 183.47 158.1 209.92 152.84 236.95 148.82 263.4 147.51 287.96 148.54 318.4 150.22 354.83 147.32 361.74 134.68 362.22 118.57 361.24 96.43 359.65 68.25 356.93 35.4 355.02 -0.6 354.5 -37.13 363.53 -104.94 405.22 -79.68 427.74 -46.74 444.28 -33.4 461.97 -30.84 480.46 -41.47 499.51 -65.39 518.97 -98.87 538.57 -136.44 558.4 -171.46 578.12 -196.89 597.52 -207.23 616.98 -201.08 636 -178.89 654.47 -145.41 672.94 -109.51 690.41 -78.87 706.92 -59.96 723.5 -56.94 739.22 -68.86 754.22 -91.95 769.45 -121.68 784.19 -149.79 798.65 -169.96 813.66 -178.86 828.77 -173.11 844.24 -153.62 860.69 -123.52 877.95 -86.93 896.27 -49.08 915.95 -14.59 937.02 12.71 959.57 30.81 983.46 38.59 1008.72 37.53 1035.11 30.02 1062.06 17.39 1089.33 4.12 1116.25 -6.92 1142.05 -15.08 1166.08 -17.16 1187.4 -12.58 1205.55 -2.09 1219.62 14.7 1228.9 36.53 1233.89 62.46 1233.81 91.1 1228.83 120.98 1220.74 151.98 1209.34 182.41 1195.84 211.54 1182.93 240.04 1170.9 266.7 1161.31 291.5 1156.58 315.34 1156.68 337.61 1162.27 358.58 1174.16 378.96 1191.08 398.54 1211.91 417.57 1235.64 436.43 1259.67 455.06 1281.71 473.53Q1281.72 473.54 1281.72 473.54" opacity="0.46"></path><path d="M1228.22 397.42C1257.92 430.66 1264.07 456.49 1245.84 475.46 1210.21 495.04 1163.59 509.75 1116.64 523.11 1078.58 543.03 1052.85 569.7 1039.73 608.5 1039.7 659.67 1045.06 720.99 1050.26 783.06 1054.51 843.21 1014.22 798.51 972.43 768.9 939.57 797.39 904.13 857.97 868.29 921.56 831.75 953.11 796.3 931.83 763.06 871.1 729.82 817.83 700.36 806.41 674.21 839.17 647.36 892.84 622.34 924.94 597.59 913.88 569.69 864.36 539.11 796.83 504.09 738.68 463.74 707.03 418.25 703.54 369.32 716.45 320.55 737.04 275.77 746.81 241.2 739.67 219.71 718.17 215.62 682.1 229.32 638.65 251.9 589.97 279.6 541.99 302.4 498.06 307.81 454.1 294.92 415.14 265.22 381.9 224.48 348.65 189.47 322.71 170.87 303.98 171.13 285.22 194.16 272.73 233.94 263.8 281.52 249.65 329.76 230.98 371.61 201.25 402.35 157.17 422.35 99.68 433.99 35.52 437.91 -38.92 451.61 -17.45 473 26.56 491.52 13.26 515.53 -37.74 543.63 -104.24 572.56 -149.83 604.09 -145.17 637.33 -91.91 670.57 -31.17 703.95 -3.14 737.71 -21.86 772.3 -72.61 808.75 -114.28 847.84 -118.41 889.07 -81.62 933.79 -17.47 981.13 46.84 1028.39 90.98 1074.45 107.01 1114.93 102.12 1156.57 76.82 1153.7 96.54 1121.27 148.26 1105.85 192.51 1101.74 238.27 1114.3 281.37 1145.72 325.09 1187.47 364.17 1228.21 397.41Q1228.22 397.42 1228.22 397.42" opacity="0.76"></path><path d="M1174.72 325.61C1201.99 355.16 1210.73 383.48 1199.74 411.63 1173.54 441.45 1135.14 474.17 1092.04 512.05 1051.42 554.33 1017.18 603.05 991.86 655.97 972.15 754.03 957.54 715.36 936.22 727.4 918.17 773.95 895.63 834.15 869.91 882.84 843.5 898.88 815.14 872.69 785.6 817.6 756.05 768.48 726.71 750.41 697.39 769.14 667.4 813.64 636.18 853.95 603.03 868.02 567.9 849.9 529.72 802.63 488.69 743.45 446.51 688.26 403.48 649.52 362.53 629.95 296.45 640.31 335.54 601.83 361.13 560.07 360.72 529.39 345.99 498.43 318.72 468.88 282.67 439.33 250.47 412.6 230.01 387.55 223.05 360.85 234.66 332.6 262.08 299.98 299.6 261.99 343.09 216.68 386.52 164.74 425.46 112.15 457.84 62.31 483.11 24.68 506.72 7.37 535.05 72.44 551.55 79.3 563.4 43.58 579.73 -13.54 600.63 -69.45 621.75 -99.58 647.17 -87.52 676.71 -38.41 706.26 16.68 738.54 48.86 773.14 44.24 807.97 6.95 845.39 -36.42 884.74 -61.31 923.84 -56.94 963.71 -19.98 1002.19 35.74 1037.16 94.72 1066.96 142.38 1088.4 172.32 1089.18 176.3 1047.66 202.69 1068.62 239.11 1100.48 266.68 1138.66 296.06 1174.71 325.6Q1174.72 325.61 1174.72 325.61" opacity="0.13"></path><path d="M1121.22 378.44C1145.83 404.3 1156.25 434.54 1151.32 468.64 1134.02 502.85 1105 540.73 1069.08 580.6 1031.3 618.32 994.77 654.04 962.61 683.18 927.43 706.91 892.2 679 882.9 651.23 878.64 649.67 871.78 667.29 861.41 705.51 850.92 757.09 836.37 807.46 817.86 839.04 799.12 841.93 776.74 813.14 750.88 764.1 725.03 719.69 696.92 697.16 666.9 703.12 636.66 734.45 604.17 772.67 569.86 800.59 535.43 809.77 499.71 792.7 464.12 754.96 430.48 705.28 399.56 654.01 373.95 609.73 348.59 565.46 353.44 536.54 378.94 530.5 403.06 522.11 404.66 476.69 372.22 440.44 340.86 414.58 312.02 384.89 291.21 351.59 279.3 317.82 281.47 279.95 296.95 238.96 322.25 198.91 355.95 158.89 393.78 123.31 432.36 96.08 469.28 80.48 502.54 80.1 531.19 90.5 555.55 111.11 576.49 133.87 593.55 144.69 609.36 138.58 625.38 110.46 639.85 63.59 656.26 10.65 675.42 -30.64 694.3 -46.59 716.55 -29.31 742.4 15.08 768.25 64.12 796.49 98.16 826.37 105.26 855.97 83.66 886.59 48.01 916.93 15.37 945.72 -3.9 972.48 1.66 995.27 30.14 1014.18 74.54 1026.93 125.76 1032.17 174.15 1032.79 214.92 1026.54 244.53 1014.87 264.4 998.7 278.53 996.83 298.56 1024.98 317.68 1055.77 332.34 1089.85 352.58 1121.21 378.43Q1121.22 378.44 1121.22 378.44" opacity="0.39"></path><path d="M1067.72 467.39C1089.42 489.55 1100.65 513.01 1100.45 536.71 1090.95 559.5 1071.38 580.74 1044.51 598.3 1013.69 612.53 980.67 620.48 948.19 620.72 918.11 617.19 891.24 607.44 868.02 594.42 849.02 586.09 832.92 583.46 818.72 591.79 807.25 614.89 795.87 650.85 783.54 695.21 765.46 757.07 717.2 767.81 685.56 710.6 663.4 671.42 639.09 646.65 613.24 642.2 587.55 659.07 560.7 687.54 533.64 716.9 507.57 740.97 482.46 749.37 459.77 740.33 439.82 716.57 424.1 680.89 414.05 639.73 408.23 596.73 408.83 556.9 415.83 522.6 425.24 493.51 438.38 469.93 452.97 450.12 463.58 433.71 470.54 417.99 471.5 401.17 463.14 385.16 447.42 366.39 425.72 344.23 399.04 322.07 373.99 297.57 354.17 271.79 339.6 246.81 334.91 222.22 340.32 200.22 353.58 181.63 375.21 168.71 402.71 163.65 433.71 163.79 466.71 171.8 499.58 185.76 531.51 197.88 561.48 207.29 589.01 207.98 614.35 193.94 637.71 165.67 659.61 125.36 680.12 79.76 700.31 38.67 720.74 13.25 740.79 9.14 761.82 29.4 783.98 68.58 806.14 111.2 828.38 144.88 850.13 160.51 871.49 154.03 891.61 131.92 909.51 103.67 932.58 67.5 955.51 88.63 953.55 140.45 949.73 182.51 943 224.08 935.07 261.77 930.64 295.68 928.89 324.22 931.86 348.4 942.71 369.24 960 388.31 983.11 407.32 1011.49 425.41 1041.03 445.22 1067.71 467.38Q1067.72 467.39 1067.72 467.39" opacity="0.84"></path><path d="M1014.22 443.41C1038.33 485.99 980.93 511.23 941.06 508.14 913.4 508.04 886.13 509.33 860.25 514.74 836.05 527.63 813.71 547.91 793.23 576.11 774.53 610.65 756.99 648.65 740.17 685.07 724.33 714.75 708.34 732.45 691.81 733.9 675.54 720.53 658.22 693 639.75 657.1 621.29 623.61 602.55 598.8 583.99 587.07 565.69 590.81 548.09 605.88 531.93 627.01 497.17 670.83 486.31 618.45 497.43 572.21 505.38 539.36 514.2 507.87 522.34 478.95 526.25 450.83 526.82 425.42 522.96 402.65 512.71 380.34 497.79 359.93 479.22 341.46 457.18 323 436.23 307.35 418.53 294.83 400.26 273.42 453.49 277.61 490.43 279.79 517.07 273.46 544.09 260.21 570.52 238.45 596.71 208.33 621.78 172.13 645.4 134.06 668.51 99.38 690.42 73.8 711.08 62.94 731.54 67.54 751.08 88.61 769.55 122.1 788.02 157.99 804.53 189.27 818.9 209.77 861.62 154.74 866.95 167.84 865.87 209.01 869.34 240.21 875.74 271.33 885.87 300.66 901.24 329.85 920.46 356.51 942.66 380.33 967.48 403.84 992.17 424.93 1014.21 443.4Q1014.22 443.41 1014.22 443.41" opacity="0.29"></path><path d="M960.72 346.68C987.99 376.23 993.66 396.76 978.95 412.52 951.12 434 911.48 461.75 868.34 502.91 824.55 556.38 783.06 616.58 746.15 663.63 710.86 681.63 678.17 658.69 648.62 603.6 585.11 567.13 574.26 593.26 584.58 544.52 577.63 504.27 559.99 466.32 532.72 436.78 496.67 407.23 468.25 388.88 454.35 377.93 451.47 362.03 466.38 342.79 493.77 310.94 528.18 263.28 567.49 203.42 605.82 148.47 644.88 117.26 680.63 126.48 710.17 175.6 750 248.15 788.7 229.44 796.41 200.27 807.75 197.83 824.18 216.19 848.71 245.92 884.27 281.36 924.66 317.13 960.71 346.67Q960.72 346.68 960.72 346.68" opacity="0.42"></path><path d="M907.22 339.29C928.92 361.45 937.69 388.18 933.87 419.43 922.18 452.64 900.78 492.36 874.03 535.22 844.29 574.95 813.12 607.63 783.83 622.72 754.33 619.1 727.52 592.72 705.36 550.1 661.78 494.33 643.7 527.2 638.1 520.71 625.67 510.21 607.92 492.62 586.22 470.46 559.54 448.29 537.38 423.66 523.11 395.76 513.05 365.21 513.6 327.88 523.27 285.31 537.42 242.91 557.7 203.73 580.64 178.79 604.86 172.18 629.27 189.91 651.43 229.1 673.59 271.72 691.41 307.08 705.59 326.94 721.06 328.09 735.36 318.91 750.26 308.23 769.63 294.42 792.57 289.28 818.88 294.48 849.39 301.63 880.53 317.12 907.21 339.28Q907.22 339.29 907.22 339.29" opacity="0.74"></path><path d="M853.72 433.62C880.99 463.16 880.48 509.04 860.04 547.71 831.76 568.07 795.96 551.69 766.42 496.6 736.87 447.48 719.17 420.11 708.72 412.08 690.43 420.21 666.99 415.61 639.72 386.07 603.67 356.52 582.82 307.61 582.27 260.76 587.38 230.06 608.85 233.48 638.4 282.6 667.94 337.69 699.98 378.02 733.59 396.39 772.87 396.44 817.67 404.07 853.72 433.62Q853.72 433.62 853.72 433.62" opacity="0.80"></path></g></svg>